<?xml version="1.0"?>
<svg width="768" height="768" xmlns="http://www.w3.org/2000/svg" xmlns:svg="http://www.w3.org/2000/svg">
 <style type="text/css">.st0{fill:#D6BA32;}
	.st1{fill:#FFDA3E;}
	.st2{fill:url(#path3043_1_);}
	.st3{fill:url(#path3041_1_);}
	.st4{fill:url(#path3041-7_1_);}
	.st5{fill:url(#path3043-4_1_);}
	.st6{fill:url(#path3047_1_);}
	.st7{fill:url(#path3049_1_);}
	.st8{fill:url(#path3051_1_);}
	.st9{fill:url(#path3047-7_1_);}
	.st10{fill:url(#path3049-7_1_);}
	.st11{fill:url(#path3051-9_1_);}</style>
 <title>Scala.js</title>
 <desc>The Scala Logo</desc>
 <g>
  <title>Layer 1</title>
  <g id="svg_1">
   <polyline id="svg_2" points="113.60678100585938,677.8898305892944 55.30677795410156,22.789830207824707 697.5067596435547,22.789830207824707 639.2067718505859,677.8898305892944 375.70677185058594,751.9898061752319 " class="st0"/>
   <polygon id="svg_3" points="377.10679626464844,699.8898305892944 589.3068084716797,641.4898061752319 639.2067718505859,80.38983058929443 377.10679626464844,80.38983058929443 " class="st1"/>
  </g>
  <g id="g3886">
   <linearGradient transform="translate(-135.5932159423828,3.3898305892944336) translate(0.25,-0.6642135381698608) " gradientTransform="matrix(1.0501 0 0 1.1201 317.15 -290.4122)" y2="692.7552" x2="340.5725" y1="692.7552" x1="30.7339" gradientUnits="userSpaceOnUse" id="path3043_1_">
    <stop stop-color="#646464" offset="0"/>
    <stop stop-color="#000000" offset="1"/>
   </linearGradient>
   <path d="m376.556784,414.525617l0,124.1c74.9,-2.5 144.2,0.9 142.9,23.4l6.3,-111.3c0,0 1.8,-31 -149.2,-36.2l0,0" class="st2" id="path3043"/>
   <linearGradient transform="translate(-135.5932159423828,3.3898305892944336) translate(0.25,-0.6642135381698608) " gradientTransform="matrix(1.0501 0 0 1.1201 317.15 -463.9336)" y2="698.1151" x2="340.5725" y1="698.1151" x1="30.7339" gradientUnits="userSpaceOnUse" id="path3041_1_">
    <stop stop-color="#646464" offset="0"/>
    <stop stop-color="#000000" offset="1"/>
   </linearGradient>
   <path d="m376.556784,230.025617l0,141.4c79.6,4.3 152.9,14.6 151.5,39.9l7.1,-125.4c0,0.1 2,-35 -158.6,-55.9l0,0" class="st3" id="path3041"/>
  </g>
  <g id="g4325">
   <linearGradient transform="translate(-135.5932159423828,3.3898305892944336) translate(1.3535534143447876,0.3535533845424652) " gradientTransform="matrix(1.0501 0 0 1.1201 318.7462 -462.3903)" y2="663.3936" x2="339.469" y1="663.3936" x1="29.6303" gradientUnits="userSpaceOnUse" id="path3041-7_1_">
    <stop stop-color="#4B4B4B" offset="0"/>
    <stop stop-color="#000000" offset="1"/>
   </linearGradient>
   <path d="m213.160337,196.343384l7.5,133c0,0 76.4,17.5 157.4,43.1l0,-141c-44.9,-11.9 -99.4,-23.9 -164.9,-35.1l0,0" class="st4" id="path3041-7"/>
   <linearGradient transform="translate(-135.5932159423828,3.3898305892944336) translate(1.3535534143447876,0.3535533845424652) " gradientTransform="matrix(1.0501 0 0 1.1201 318.7462 -288.8688)" y2="660.9951" x2="339.469" y1="660.9951" x1="29.6303" gradientUnits="userSpaceOnUse" id="path3043-4_1_">
    <stop stop-color="#4B4B4B" offset="0"/>
    <stop stop-color="#000000" offset="1"/>
   </linearGradient>
   <path d="m222.960337,371.043384l6.6,118c0,0 72.2,21.4 148.4,50.4l0,-124.1c-42,-14.1 -93.2,-29.1 -155,-44.3l0,0" class="st5" id="path3043-4"/>
  </g>
  <g id="layer1"/>
  <g id="g3890">
   <linearGradient transform="translate(-135.5932159423828,3.3898305892944336) translate(0.25,-0.6642135381698608) " gradientTransform="matrix(1.0501 0 0 -1.1201 317.15 954.3288)" y2="665.1633" x2="340.5725" y1="665.1633" x1="30.7339" gradientUnits="userSpaceOnUse" id="path3047_1_">
    <stop stop-color="#A00000" offset="0"/>
    <stop stop-color="#FF0000" offset="1"/>
   </linearGradient>
   <path d="m545.756784,99.325617c-1.8,31 -83.2,58.1 -169.2,78.8l0,146.5c159.1,-47.7 161.1,-83 161.1,-83l8.1,-142.3l0,0" class="st6" id="path3047"/>
   <linearGradient transform="translate(-135.5932159423828,3.3898305892944336) translate(0.25,-0.6642135381698608) " gradientTransform="matrix(1.0501 0 0 -1.1201 317.15 954.3288)" y2="504.7004" x2="340.5725" y1="504.7004" x1="30.7339" gradientUnits="userSpaceOnUse" id="path3049_1_">
    <stop stop-color="#A00000" offset="0"/>
    <stop stop-color="#FF0000" offset="1"/>
   </linearGradient>
   <path d="m535.156784,286.025617c-1.5,27.2 -78,57.8 -158.6,83.1l0,128.3c149.7,-54.8 151.5,-86 151.5,-86l7.1,-125.4l0,0" class="st7" id="path3049"/>
   <linearGradient transform="translate(-135.5932159423828,3.3898305892944336) translate(0.25,-0.6642135381698608) " gradientTransform="matrix(1.0501 0 0 -1.1201 317.15 954.3288)" y2="363.1982" x2="340.5725" y1="363.1982" x1="30.7339" gradientUnits="userSpaceOnUse" id="path3051_1_">
    <stop stop-color="#A00000" offset="0"/>
    <stop stop-color="#FF0000" offset="1"/>
   </linearGradient>
   <path d="m525.756784,450.725617c-1.4,24.1 -73.5,57.2 -149.2,85.8l0,113.2c141.3,-60 142.9,-87.8 142.9,-87.8l6.3,-111.2l0,0" class="st8" id="path3051"/>
  </g>
  <g id="g4329">
   <linearGradient transform="translate(-135.5932159423828,3.3898305892944336) translate(1.3535534143447876,0.3535533845424652) " gradientTransform="matrix(1.0501 0 0 -1.1201 318.7462 953.5922)" y2="627.9769" x2="339.469" y1="627.9769" x1="29.6303" gradientUnits="userSpaceOnUse" id="path3047-7_1_">
    <stop stop-color="#780000" offset="0"/>
    <stop stop-color="#C00000" offset="1"/>
   </linearGradient>
   <path d="m377.960337,178.443384c-85.5,13.2 -164.8,18 -164.8,18l7.5,133c62.2,0.6 114.2,-1.3 157.4,-4.9l0,-146.1l-0.1,0" class="st9" id="path3047-7"/>
   <linearGradient transform="translate(-135.5932159423828,3.3898305892944336) translate(1.3535534143447876,0.3535533845424652) " gradientTransform="matrix(1.0501 0 0 -1.1201 318.7462 953.5922)" y2="468.1432" x2="339.469" y1="468.1432" x1="29.6303" gradientUnits="userSpaceOnUse" id="path3049-7_1_">
    <stop stop-color="#780000" offset="0"/>
    <stop stop-color="#C00000" offset="1"/>
   </linearGradient>
   <path d="m377.960337,368.843384c-80.2,4.6 -155,2.2 -155,2.2l6.6,118c58.8,5.5 107.8,7.8 148.4,8.1l0,-128.3l0,0" class="st10" id="path3049-7"/>
   <linearGradient transform="translate(-135.5932159423828,3.3898305892944336) translate(1.3535534143447876,0.3535533845424652) " gradientTransform="matrix(1.0501 0 0 -1.1201 318.7462 953.5922)" y2="329.7609" x2="339.469" y1="329.7609" x1="29.6303" gradientUnits="userSpaceOnUse" id="path3051-9_1_">
    <stop stop-color="#780000" offset="0"/>
    <stop stop-color="#C00000" offset="1"/>
   </linearGradient>
   <path d="m377.960337,536.243384c-75.6,-2.2 -146.3,-10.1 -146.3,-10.1l5.9,105.4c55.8,9.3 102.1,15 140.4,18.3l0,-113.6l0,0" class="st11" id="path3051-9"/>
  </g>
 </g>
</svg>